<svg width="854" height="565" viewBox="0 0 854 565" fill="none" xmlns="http://www.w3.org/2000/svg">
<g clip-path="url(#clip0_64_193)">
<path d="M819.77 378.11C813.61 384.84 805.97 389.85 797.68 393.74H797.67C796.89 394.11 796.11 394.47 795.32 394.81H795.31L795.3 394.82L795.29 394.81H795.28L795.28 394.814L795.277 394.817L795.274 394.819L795.27 394.82H795.26L795.25 394.81C795.24 394.82 795.24 394.82 795.23 394.81L795.22 394.82L795.21 394.81H795.2C795.19 394.82 795.19 394.82 795.18 394.81H795.17C789.621 397.21 783.922 399.248 778.11 400.91C743.93 410.607 708.005 412.483 673 406.4C672.33 406.28 671.67 406.16 671 406.04V324.93C671.66 324.65 672.33 324.37 673 324.1C677.37 322.29 681.793 320.627 686.27 319.11C692.71 316.91 699.24 315.023 705.86 313.45C727.458 308.223 749.743 306.421 771.9 308.11C775.93 308.41 779.95 308.843 783.96 309.41C792.35 310.58 801.15 312.62 808.89 316.16H808.9C810.03 316.69 811.14 317.24 812.24 317.83C819.12 321.56 824.92 326.69 828.46 333.72C829.732 336.245 830.647 338.934 831.18 341.71V341.73C831.38 342.69 831.52 343.66 831.63 344.62C832.89 356.46 827.98 369.13 819.77 378.11Z" fill="#F2F2F2"/>
<path d="M831.63 344.62C831.532 344.644 831.431 344.658 831.33 344.66C814.2 345.41 797.093 346.523 780.01 348H779.98C779.91 348.01 779.85 348.01 779.78 348.02C762.24 349.54 744.737 351.443 727.27 353.73C726.53 353.83 725.8 353.93 725.07 354.02C712.99 355.63 700.934 357.417 688.9 359.38C683.59 360.25 678.29 361.157 673 362.1C672.33 362.22 671.67 362.33 671 362.46V359.43C671.67 359.3 672.34 359.19 673 359.07C690.62 355.95 708.3 353.227 726.04 350.9C730.5 350.3 734.967 349.733 739.44 349.2C752.36 347.64 765.3 346.293 778.26 345.16C779.21 345.08 780.15 345 781.1 344.92C797.69 343.51 814.303 342.44 830.94 341.71C831.02 341.706 831.101 341.713 831.18 341.73C832.78 341.87 833.12 344.27 831.63 344.62Z" fill="white"/>
<path d="M796.056 391.863C774.716 392.02 753.693 382.971 738.598 367.994C734.339 363.752 730.586 359.03 727.414 353.924C726.397 352.292 724.016 354.092 725.025 355.709C736.748 374.51 756.275 387.902 777.803 392.827C783.917 394.212 790.171 394.881 796.44 394.821C798.353 394.807 797.957 391.849 796.056 391.863Z" fill="white"/>
<path d="M705.86 313.45C705.768 313.731 705.605 313.983 705.385 314.182C705.166 314.38 704.899 314.517 704.61 314.58C699.719 315.861 694.994 317.707 690.53 320.08C684.011 323.523 678.091 327.997 673 333.33C672.73 333.6 672.47 333.87 672.22 334.15C671.8 334.59 671.4 335.04 671 335.5V331.14C671.64 330.46 672.31 329.79 673 329.15C677.02 325.301 681.473 321.932 686.27 319.11C692.71 316.91 699.24 315.023 705.86 313.45Z" fill="white"/>
<path d="M810.659 315.372C797.084 321.206 785.726 331.221 778.237 343.957C778.085 344.322 778.084 344.731 778.232 345.097C778.38 345.463 778.667 345.755 779.03 345.911C779.395 346.056 779.801 346.054 780.165 345.906C780.529 345.759 780.822 345.476 780.983 345.119C788.131 333.089 798.915 323.64 811.78 318.135C813.545 317.381 812.427 314.616 810.659 315.372Z" fill="white"/>
<path d="M851.58 230.44C849.26 239.26 844.81 247.25 839.28 254.54L839.27 254.55C838.76 255.23 838.23 255.92 837.68 256.58V256.59C833.841 261.32 829.695 265.793 825.27 269.98C809.363 285.139 791.396 297.975 771.9 308.11C741.23 324.13 706.95 333.6 673 334.14C672.74 334.15 672.48 334.15 672.22 334.15C671.81 334.16 671.4 334.16 671 334.16V288.71C671.65 287.47 672.32 286.23 673 285C681.823 269.125 692.582 254.405 705.03 241.18C705.33 240.85 705.64 240.52 705.95 240.2C710.63 235.26 715.536 230.557 720.67 226.09C740.418 208.726 763.241 195.21 787.96 186.24C795.93 183.38 804.67 181.09 813.17 180.64C814.42 180.57 815.66 180.54 816.91 180.55C824.74 180.66 832.25 182.51 838.66 187.09C840.955 188.739 843.015 190.693 844.78 192.9C845.4 193.67 845.97 194.46 846.52 195.27V195.28C853.14 205.18 854.68 218.67 851.58 230.44Z" fill="#F2F2F2"/>
<path d="M846.52 195.27V195.28C846.446 195.345 846.366 195.402 846.28 195.45C831.48 204.06 816.867 212.983 802.44 222.22C802.42 222.23 802.41 222.24 802.39 222.25C802.332 222.29 802.272 222.327 802.21 222.36C787.38 231.86 772.76 241.68 758.35 251.82C757.75 252.24 757.14 252.67 756.53 253.1C746.58 260.13 736.733 267.31 726.99 274.64C708.59 288.5 690.593 302.873 673 317.76C672.33 318.32 671.67 318.89 671 319.46V315.57C671.66 315 672.33 314.43 673 313.87C679.74 308.18 686.54 302.57 693.4 297.04C695.45 295.39 697.51 293.74 699.57 292.11C717.87 277.54 736.58 263.513 755.7 250.03H755.71C759.47 247.38 763.237 244.753 767.01 242.15C777.73 234.77 788.57 227.567 799.53 220.54C800.32 220.03 801.12 219.52 801.92 219.01C815.95 210.05 830.164 201.383 844.56 193.01C844.63 192.967 844.704 192.931 844.78 192.9C846.28 192.3 847.69 194.28 846.52 195.27Z" fill="white"/>
<path d="M836.968 253.633C818.143 263.685 795.322 265.438 774.998 259.186C769.256 257.408 763.739 254.97 758.558 251.922C756.899 250.949 755.627 253.648 757.271 254.612C776.386 265.816 799.899 268.605 821.252 262.965C827.309 261.352 833.159 259.04 838.682 256.074C840.37 255.173 838.645 252.738 836.968 253.633Z" fill="white"/>
<path d="M696.121 290.222C695.189 284.987 694.87 279.661 695.169 274.353C695.842 262.245 699.55 250.502 705.95 240.202C710.635 235.264 715.543 230.56 720.673 226.09C720.721 226.382 720.693 226.682 720.59 226.96C720.487 227.238 720.314 227.484 720.087 227.675C716.353 231.082 713.027 234.91 710.175 239.082C699.986 253.952 696.01 272.214 699.093 289.974C699.143 290.176 699.14 290.387 699.085 290.587C699.03 290.787 698.925 290.97 698.779 291.117C698.565 291.304 698.306 291.431 698.028 291.486C697.75 291.541 697.462 291.522 697.193 291.432C696.925 291.341 696.684 291.182 696.496 290.97C696.308 290.757 696.179 290.5 696.121 290.222Z" fill="white"/>
<path d="M814.368 179.112C805.057 190.585 799.65 204.729 798.935 219.487C798.97 219.88 799.159 220.244 799.46 220.499C799.761 220.754 800.151 220.88 800.544 220.849C800.935 220.807 801.294 220.617 801.548 220.317C801.801 220.018 801.93 219.632 801.906 219.24C802.648 205.266 807.809 191.89 816.644 181.039C817.857 179.551 815.583 177.622 814.368 179.112Z" fill="white"/>
<path d="M710.81 211.97V211.98C710.74 212.84 710.66 213.69 710.57 214.54V214.56C709.875 220.61 708.789 226.61 707.32 232.52C706.62 235.42 705.86 238.3 705.03 241.18C704.93 241.55 704.82 241.92 704.71 242.28V242.29C702.268 250.666 699.35 258.896 695.97 266.94C689.752 281.75 682.056 295.895 673 309.16C672.35 310.13 671.68 311.1 671 312.06V155.46C671.67 155.42 672.33 155.42 673 155.44C673.32 155.44 673.64 155.45 673.96 155.47C676.782 155.618 679.569 156.16 682.24 157.08C683.18 157.39 684.09 157.74 684.99 158.13C695.9 162.91 704.47 173.45 708.19 185.04C710.98 193.72 711.54 202.85 710.81 211.97Z" fill="#F2F2F2"/>
<path d="M684.99 158.13C684.967 158.228 684.93 158.322 684.88 158.41C680.83 166.28 676.87 174.19 673 182.14C672.33 183.51 671.66 184.89 671 186.26V179.46C671.66 178.1 672.327 176.74 673 175.38C675.99 169.32 679.03 163.287 682.12 157.28C682.154 157.21 682.194 157.143 682.24 157.08C683.16 155.76 685.44 156.66 684.99 158.13Z" fill="white"/>
<path d="M711.13 213.58C710.95 213.9 710.77 214.22 710.57 214.54C707.633 219.657 704.139 224.433 700.15 228.78C692.489 237.092 683.262 243.81 673 248.55C672.34 248.87 671.67 249.17 671 249.45V246.2C671.67 245.9 672.34 245.59 673 245.27C687.855 238.184 700.195 226.735 708.37 212.45C708.488 212.246 708.648 212.07 708.84 211.933C709.032 211.797 709.251 211.703 709.483 211.658C709.714 211.614 709.952 211.619 710.181 211.675C710.41 211.73 710.625 211.834 710.81 211.98C710.936 212.064 711.045 212.172 711.129 212.298C711.213 212.424 711.272 212.565 711.302 212.714C711.331 212.862 711.332 213.015 711.302 213.164C711.273 213.313 711.214 213.454 711.13 213.58Z" fill="white"/>
<path d="M673 33V109H671V108.19H2V109H0V33C0.00858837 24.2505 3.48812 15.8618 9.67496 9.67496C15.8618 3.48812 24.2505 0.00858837 33 0H640C648.75 0.00858837 657.138 3.48812 663.325 9.67496C669.512 15.8618 672.991 24.2505 673 33Z" fill="#FF2DCA"/>
<path d="M640 0H33C24.2505 0.00858837 15.8618 3.48812 9.67496 9.67496C3.48812 15.8618 0.00858837 24.2505 0 33V467C0.00858837 475.75 3.48812 484.138 9.67496 490.325C15.8618 496.512 24.2505 499.991 33 500H640C648.75 499.991 657.138 496.512 663.325 490.325C669.512 484.138 672.991 475.75 673 467V33C672.991 24.2505 669.512 15.8618 663.325 9.67496C657.138 3.48812 648.75 0.00858837 640 0ZM671 467C670.99 475.218 667.72 483.097 661.909 488.909C656.097 494.72 648.218 497.99 640 498H33C24.7815 497.99 16.9026 494.72 11.0913 488.909C5.27991 483.097 2.01049 475.218 2 467V33C2.01049 24.7815 5.27991 16.9026 11.0913 11.0913C16.9026 5.27992 24.7815 2.01049 33 2H640C648.218 2.01049 656.097 5.27992 661.909 11.0913C667.72 16.9026 670.99 24.7815 671 33V467Z" fill="#3F3D56"/>
<path d="M136 74.5C147.046 74.5 156 65.5457 156 54.5C156 43.4543 147.046 34.5 136 34.5C124.954 34.5 116 43.4543 116 54.5C116 65.5457 124.954 74.5 136 74.5Z" fill="white"/>
<path d="M537 74.5C548.046 74.5 557 65.5457 557 54.5C557 43.4543 548.046 34.5 537 34.5C525.954 34.5 517 43.4543 517 54.5C517 65.5457 525.954 74.5 537 74.5Z" fill="white"/>
<path d="M193.785 277.502H74.8084C69.768 277.496 64.9357 275.491 61.3716 271.927C57.8075 268.363 55.8027 263.531 55.797 258.49V202.258C55.8027 197.217 57.8075 192.385 61.3716 188.821C64.9357 185.257 69.768 183.252 74.8084 183.246H193.785C198.825 183.252 203.657 185.257 207.221 188.821C210.786 192.385 212.79 197.217 212.796 202.258V258.49C212.79 263.531 210.786 268.363 207.221 271.927C203.657 275.491 198.825 277.496 193.785 277.502Z" fill="#FF2DCA"/>
<path d="M396.183 277.502H277.207C272.167 277.496 267.334 275.491 263.77 271.927C260.206 268.363 258.201 263.531 258.196 258.49V202.258C258.201 197.217 260.206 192.385 263.77 188.821C267.334 185.257 272.167 183.252 277.207 183.246H396.183C401.224 183.252 406.056 185.257 409.62 188.821C413.184 192.385 415.189 197.217 415.195 202.258V258.49C415.189 263.531 413.184 268.363 409.62 271.927C406.056 275.491 401.224 277.496 396.183 277.502Z" fill="#FF2DCA"/>
<path d="M396.183 422.793H277.207C272.014 422.787 267.035 420.722 263.363 417.05C259.691 413.378 257.625 408.399 257.619 403.206V346.973C257.625 341.779 259.691 336.801 263.363 333.129C267.035 329.456 272.014 327.391 277.207 327.385H396.183C401.376 327.391 406.355 329.456 410.027 333.129C413.699 336.801 415.765 341.779 415.771 346.973V403.206C415.765 408.399 413.699 413.378 410.027 417.05C406.355 420.722 401.376 422.787 396.183 422.793Z" fill="#F2F2F2"/>
<path d="M193.394 422.793H74.4182C69.2251 422.787 64.2463 420.722 60.5742 417.05C56.9021 413.378 54.8366 408.399 54.8307 403.206V346.973C54.8366 341.779 56.9021 336.801 60.5742 333.129C64.2463 329.456 69.2251 327.391 74.4182 327.385H193.394C198.588 327.391 203.566 329.456 207.238 333.129C210.911 336.801 212.976 341.779 212.982 346.973V403.206C212.976 408.399 210.911 413.378 207.238 417.05C203.566 420.722 198.588 422.787 193.394 422.793Z" fill="#F2F2F2"/>
<path d="M598.582 422.793H479.606C474.412 422.787 469.434 420.722 465.761 417.05C462.089 413.378 460.024 408.399 460.018 403.206V346.973C460.024 341.779 462.089 336.801 465.761 333.129C469.434 329.456 474.412 327.391 479.606 327.385H598.582C603.775 327.391 608.754 329.456 612.426 333.129C616.098 336.801 618.163 341.779 618.169 346.973V403.206C618.163 408.399 616.098 413.378 612.426 417.05C608.754 420.722 603.775 422.787 598.582 422.793Z" fill="#F2F2F2"/>
<path d="M598.582 277.615H479.606C474.412 277.609 469.434 275.544 465.761 271.871C462.089 268.199 460.024 263.221 460.018 258.027V201.794C460.024 196.601 462.089 191.622 465.761 187.95C469.434 184.278 474.412 182.213 479.606 182.207H598.582C603.775 182.213 608.754 184.278 612.426 187.95C616.098 191.622 618.163 196.601 618.169 201.794V258.027C618.163 263.221 616.098 268.199 612.426 271.871C608.754 275.544 603.775 277.609 598.582 277.615Z" fill="#F2F2F2"/>
<path d="M134.297 262.636C152.114 262.636 166.558 248.192 166.558 230.374C166.558 212.556 152.114 198.112 134.297 198.112C116.479 198.112 102.035 212.556 102.035 230.374C102.035 248.192 116.479 262.636 134.297 262.636Z" fill="white"/>
<path d="M131.099 242.681C130.373 242.683 129.666 242.448 129.085 242.013L129.049 241.986L121.468 236.181C121.116 235.912 120.821 235.576 120.599 235.193C120.377 234.81 120.233 234.387 120.175 233.949C120.116 233.51 120.145 233.064 120.259 232.636C120.373 232.208 120.571 231.808 120.84 231.456C121.109 231.105 121.445 230.81 121.828 230.589C122.211 230.367 122.634 230.223 123.073 230.165C123.512 230.107 123.958 230.137 124.386 230.251C124.813 230.366 125.214 230.564 125.565 230.833L130.476 234.599L142.081 219.464C142.35 219.113 142.686 218.818 143.069 218.597C143.452 218.376 143.875 218.232 144.313 218.174C144.752 218.116 145.197 218.145 145.625 218.259C146.052 218.374 146.453 218.571 146.804 218.84L146.732 218.938L146.806 218.842C147.514 219.386 147.977 220.189 148.094 221.074C148.211 221.96 147.972 222.855 147.429 223.565L133.778 241.367C133.463 241.777 133.057 242.109 132.592 242.337C132.127 242.565 131.616 242.683 131.099 242.681Z" fill="#FF2DCA"/>
<path d="M337.271 262.173C355.089 262.173 369.533 247.729 369.533 229.911C369.533 212.093 355.089 197.649 337.271 197.649C319.453 197.649 305.009 212.093 305.009 229.911C305.009 247.729 319.453 262.173 337.271 262.173Z" fill="white"/>
<path d="M334.073 242.218C333.347 242.219 332.641 241.985 332.06 241.549L332.024 241.522L324.442 235.717C323.733 235.174 323.269 234.371 323.152 233.486C323.034 232.6 323.274 231.704 323.817 230.995C324.361 230.286 325.163 229.822 326.049 229.704C326.935 229.587 327.83 229.827 328.54 230.37L333.45 234.135L345.056 219.001C345.325 218.65 345.661 218.355 346.044 218.134C346.427 217.912 346.849 217.769 347.288 217.711C347.726 217.653 348.172 217.682 348.599 217.796C349.027 217.911 349.427 218.108 349.778 218.377L349.706 218.475L349.78 218.379C350.488 218.923 350.952 219.726 351.068 220.611C351.185 221.496 350.946 222.392 350.404 223.101L336.753 240.904C336.437 241.314 336.031 241.646 335.567 241.874C335.102 242.102 334.591 242.219 334.073 242.218Z" fill="#FF2DCA"/>
<path d="M555.312 382.15C556.372 380.991 557.165 379.614 557.635 378.115C558.105 376.616 558.241 375.033 558.033 373.476C557.824 371.92 557.278 370.428 556.43 369.105C555.583 367.783 554.456 366.662 553.129 365.822L535.118 269.65L513.214 277.772L537.806 369.753C536.543 372.076 536.176 374.781 536.774 377.357C537.372 379.932 538.895 382.199 541.053 383.727C543.211 385.255 545.854 385.939 548.482 385.648C551.11 385.357 553.541 384.113 555.312 382.15Z" fill="#A0616A"/>
<path d="M380.527 235.4C380.582 235.998 380.589 236.598 380.549 237.196L423.139 269.976L435.217 265.016L445.084 282.266L424.556 293.123C422.898 294.001 421 294.316 419.147 294.023C417.294 293.729 415.586 292.843 414.28 291.496L371.709 247.607C369.455 248.115 367.1 247.925 364.957 247.062C362.815 246.2 360.985 244.705 359.712 242.777C358.44 240.849 357.784 238.58 357.833 236.27C357.881 233.96 358.632 231.72 359.985 229.848C361.338 227.975 363.229 226.559 365.406 225.788C367.583 225.016 369.944 224.925 372.174 225.528C374.404 226.131 376.398 227.398 377.89 229.162C379.382 230.925 380.302 233.101 380.527 235.4Z" fill="#A0616A"/>
<path d="M480.028 552.849H467.769L461.936 515.561L480.031 515.562L480.028 552.849Z" fill="#A0616A"/>
<path d="M483.155 564.733L443.624 564.732V564.232C443.624 562.211 444.022 560.211 444.796 558.344C445.569 556.477 446.702 554.781 448.131 553.352C449.56 551.923 451.256 550.79 453.123 550.017C454.989 549.244 456.99 548.846 459.011 548.846L483.156 548.847L483.155 564.733Z" fill="#2F2E41"/>
<path d="M526.028 552.849H513.769L507.936 515.561L526.031 515.562L526.028 552.849Z" fill="#A0616A"/>
<path d="M529.155 564.733L489.624 564.732V564.232C489.624 562.211 490.022 560.211 490.796 558.344C491.569 556.477 492.702 554.781 494.131 553.352C495.56 551.923 497.256 550.79 499.123 550.017C500.989 549.244 502.99 548.846 505.011 548.846L529.156 548.847L529.155 564.733Z" fill="#2F2E41"/>
<path d="M465.223 545.479C464.104 545.48 463.024 545.063 462.197 544.31C461.369 543.557 460.852 542.521 460.748 541.407L450.065 397.718L450.569 397.677L524.09 391.634L524.11 392.156L529.955 541.007C529.977 541.611 529.878 542.214 529.662 542.78C529.446 543.345 529.119 543.861 528.699 544.297C528.279 544.733 527.775 545.079 527.219 545.316C526.662 545.553 526.063 545.675 525.458 545.675H511.042C509.966 545.68 508.924 545.297 508.107 544.596C507.29 543.895 506.753 542.924 506.595 541.859L487.018 421.614C486.999 421.49 486.934 421.377 486.836 421.299C486.737 421.221 486.613 421.182 486.488 421.192C486.363 421.201 486.245 421.257 486.159 421.348C486.074 421.44 486.025 421.561 486.024 421.686L485.136 540.41C485.127 541.557 484.681 542.657 483.889 543.486C483.097 544.315 482.018 544.811 480.873 544.872L465.464 545.472C465.384 545.477 465.303 545.479 465.223 545.479Z" fill="#2F2E41"/>
<path d="M477.772 216.125C491.337 216.125 502.333 205.129 502.333 191.564C502.333 178 491.337 167.003 477.772 167.003C464.207 167.003 453.211 178 453.211 191.564C453.211 205.129 464.207 216.125 477.772 216.125Z" fill="#A0616A"/>
<path d="M482.527 406.882C471.791 406.85 461.108 405.39 450.758 402.54C449.762 402.25 448.897 401.625 448.307 400.772C447.718 399.918 447.441 398.887 447.522 397.853C450.829 348.16 451.606 309.596 444.653 282.914C441.69 271.542 443.035 259.565 448.344 250.054C456.334 235.741 471.02 227.03 486.685 227.331C487.433 227.345 488.189 227.372 488.953 227.411C512.726 228.635 531.25 250.141 530.247 275.353L525.465 395.521C525.448 396.398 525.171 397.25 524.67 397.97C524.169 398.689 523.466 399.244 522.65 399.565C509.822 404.391 496.232 406.869 482.527 406.882Z" fill="#3F3D56"/>
<path d="M448.695 292.141L430.298 269.596C429.774 268.955 429.395 268.208 429.186 267.407C428.977 266.606 428.944 265.769 429.087 264.954C429.231 264.138 429.549 263.364 430.019 262.682C430.489 262.001 431.101 261.428 431.812 261.004L456.733 246.154C460.03 243.494 464.248 242.25 468.461 242.695C472.674 243.14 476.538 245.237 479.207 248.527C481.876 251.817 483.131 256.031 482.697 260.245C482.264 264.46 480.176 268.33 476.893 271.007L457.416 292.38C456.858 292.992 456.175 293.476 455.413 293.8C454.651 294.124 453.828 294.28 453.001 294.257C452.173 294.235 451.36 294.034 450.617 293.669C449.874 293.303 449.219 292.782 448.695 292.141Z" fill="#3F3D56"/>
<path d="M506.57 289.312C505.814 288.974 505.14 288.477 504.594 287.854C504.048 287.232 503.643 286.499 503.406 285.706L495.124 258.001C493.326 254.164 493.123 249.771 494.56 245.785C495.996 241.8 498.955 238.546 502.787 236.739C506.619 234.931 511.011 234.718 515 236.144C518.99 237.571 522.25 240.522 524.067 244.349L540.084 268.537C540.541 269.228 540.844 270.008 540.972 270.826C541.1 271.644 541.05 272.48 540.826 273.277C540.602 274.074 540.209 274.814 539.673 275.445C539.137 276.076 538.472 276.585 537.722 276.936L511.368 289.272C510.618 289.624 509.801 289.809 508.973 289.816C508.145 289.823 507.326 289.651 506.57 289.312Z" fill="#3F3D56"/>
<path d="M489.909 211.717L471.703 207.55C469.825 207.12 467.569 206.3 467.308 204.391C466.958 201.826 470.65 200.039 470.309 197.473C469.979 194.987 466.617 194.667 464.219 193.933C461.986 193.15 460.145 191.528 459.086 189.412C458.028 187.295 457.834 184.85 458.547 182.593C455.952 186.249 450.025 186.562 446.66 183.6C443.295 180.638 442.65 175.264 444.67 171.262C445.762 169.297 447.302 167.616 449.166 166.358C451.029 165.1 453.163 164.3 455.394 164.022C459.88 163.513 464.416 164.358 468.417 166.449C468.684 163.616 472.222 162.467 475.067 162.442C480.979 162.511 486.722 164.421 491.497 167.906C496.273 171.392 499.843 176.279 501.711 181.888C505.203 193.141 502.867 205.475 493.096 212.058L489.909 211.717Z" fill="#2F2E41"/>
<path d="M673.287 565H292.287C292.022 565 291.768 564.895 291.58 564.707C291.393 564.52 291.287 564.265 291.287 564C291.287 563.735 291.393 563.48 291.58 563.293C291.768 563.105 292.022 563 292.287 563H673.287C673.553 563 673.807 563.105 673.995 563.293C674.182 563.48 674.287 563.735 674.287 564C674.287 564.265 674.182 564.52 673.995 564.707C673.807 564.895 673.553 565 673.287 565Z" fill="#3F3D56"/>
</g>
<defs>
<clipPath id="clip0_64_193">
<rect width="853.117" height="565" fill="white"/>
</clipPath>
</defs>
</svg>
