<svg width="770" height="728" viewBox="0 0 770 728" fill="none" xmlns="http://www.w3.org/2000/svg">
<g clip-path="url(#clip0_59_41)">
<path d="M672.962 342.882C673.962 344.057 674.704 345.429 675.14 346.909C675.576 348.389 675.697 349.944 675.494 351.474C675.291 353.004 674.769 354.474 673.961 355.789C673.154 357.104 672.079 358.235 670.807 359.108L617.037 396.025L593.36 411.81C592.015 412.706 590.385 413.07 588.786 412.831C587.188 412.592 585.735 411.766 584.712 410.515C584.115 409.786 583.684 408.936 583.448 408.023C583.212 407.111 583.176 406.159 583.345 405.231C583.513 404.304 583.88 403.424 584.422 402.653C584.963 401.882 585.666 401.237 586.481 400.764L609.414 387.448L649.437 349.331L623.708 321.696L642.766 307.402L672.962 342.882Z" fill="#A0616A"/>
<path d="M546.52 690.482H533.367L525.555 581.847L558.908 580.894L546.52 690.482Z" fill="#A0616A"/>
<path d="M547.473 725.74C543.966 727.341 541.028 714.373 538.07 717.28C529.795 725.412 517.124 727.183 506.079 723.632L509.945 723.589C509.278 723.375 508.662 723.028 508.134 722.568C507.605 722.109 507.176 721.547 506.871 720.917C506.566 720.287 506.392 719.601 506.36 718.902C506.328 718.203 506.438 717.504 506.684 716.848C506.978 716.064 507.459 715.363 508.084 714.805C508.709 714.247 509.46 713.85 510.273 713.647L519.073 711.447L532.891 687.147L546.996 686.194C550.141 690.203 552.336 694.873 553.415 699.852C554.495 704.832 554.431 709.991 553.229 714.943C551.949 720.167 549.973 724.599 547.473 725.74Z" fill="#2F2E41"/>
<path d="M634.096 690.482H620.943L613.131 581.847L647.437 575.177L634.096 690.482Z" fill="#A0616A"/>
<path d="M635.049 725.74C631.542 727.341 628.604 714.373 625.646 717.28C617.371 725.412 604.7 727.183 593.655 723.632L597.52 723.589C596.854 723.375 596.238 723.028 595.71 722.568C595.181 722.109 594.752 721.547 594.447 720.917C594.142 720.287 593.968 719.601 593.936 718.902C593.904 718.203 594.014 717.504 594.26 716.848C594.554 716.064 595.035 715.363 595.66 714.805C596.285 714.247 597.036 713.85 597.849 713.647L606.649 711.447L620.467 687.147L635.525 685.241L635.906 685.863C638.817 690.555 640.694 695.813 641.411 701.288C642.129 706.763 641.67 712.328 640.066 717.612C638.814 721.624 637.109 724.8 635.049 725.74Z" fill="#2F2E41"/>
<path d="M649.009 309.859C636.914 311.542 628.54 318.166 625.129 331.38L602.896 290.33C601.578 287.721 601.244 284.725 601.955 281.89C602.667 279.055 604.376 276.571 606.77 274.894C609.31 273.113 612.435 272.372 615.505 272.821C618.575 273.27 621.356 274.877 623.28 277.31L649.009 309.859Z" fill="#FF2DCA"/>
<path d="M672.307 570.412C618.249 594.33 562.927 597.273 506.497 581.847C527.103 501.926 551.434 429.659 551.285 370.296L606.555 365.531L615.065 379.022C635.255 411.031 649.192 446.579 656.136 483.782L672.307 570.412Z" fill="#2F2E41"/>
<path d="M581.779 247.367C597.567 247.367 610.367 234.568 610.367 218.779C610.367 202.99 597.567 190.191 581.779 190.191C565.99 190.191 553.19 202.99 553.19 218.779C553.19 234.568 565.99 247.367 581.779 247.367Z" fill="#A0616A"/>
<path d="M613.225 269.284L577.967 271.19L572.249 239.743L600.837 234.979L613.225 269.284Z" fill="#A0616A"/>
<path d="M609.414 370.296L570.786 371.384L551.285 374.107C541.712 342.486 533.653 310.937 553.19 284.531L576.061 261.661L610.367 260.708L610.821 260.968C616.269 264.089 620.491 268.973 622.792 274.815C625.093 280.658 625.335 287.109 623.478 293.107C614.965 320.772 609.496 346.896 609.414 370.296Z" fill="#FF2DCA"/>
<path d="M550.332 458.919L547.936 491.665C547.807 493.419 547.05 495.068 545.802 496.307C544.554 497.547 542.901 498.294 541.146 498.411C540.135 498.478 539.121 498.334 538.169 497.988C537.216 497.642 536.346 497.101 535.615 496.4C534.883 495.698 534.305 494.853 533.919 493.916C533.532 492.979 533.345 491.972 533.369 490.959L534.132 458.919L557.955 368.39L558.908 313.119L585.59 312.167L583.684 376.013L550.332 458.919Z" fill="#A0616A"/>
<path d="M588.449 316.931C577.137 312.331 566.571 313.872 557.002 323.602L558.313 276.936C558.478 274.018 559.69 271.257 561.725 269.159C563.76 267.061 566.484 265.767 569.396 265.514C572.486 265.245 575.563 266.168 577.995 268.094C580.427 270.02 582.03 272.803 582.477 275.873L588.449 316.931Z" fill="#FF2DCA"/>
<path d="M642.29 345.996H554.62C575.072 291.839 581.667 241.457 554.62 198.291C555.084 185.326 571.713 174.086 584.627 175.328C599.879 176.794 620.374 188.002 623.231 203.055L642.29 345.996Z" fill="#2F2E41"/>
<path d="M362.889 172.947H358.891V63.4019C358.891 55.0759 357.251 46.8313 354.064 39.139C350.878 31.4467 346.208 24.4574 340.321 18.5699C334.433 12.6825 327.444 8.01238 319.751 4.82615C312.059 1.63991 303.815 -3.9701e-06 295.488 2.09811e-05H63.4021C55.076 2.59601e-06 46.8314 1.63993 39.1391 4.82617C31.4469 8.01241 24.4575 12.6826 18.5701 18.57C12.6826 24.4574 8.01246 31.4468 4.82622 39.1391C1.63997 46.8313 3.65838e-05 55.0759 4.57764e-05 63.4019V664.376C3.92103e-05 672.702 1.63997 680.947 4.82622 688.639C8.01247 696.331 12.6826 703.321 18.5701 709.208C24.4575 715.095 31.4469 719.766 39.1391 722.952C46.8314 726.138 55.076 727.778 63.4021 727.778H295.488C303.815 727.778 312.059 726.138 319.751 722.952C327.444 719.766 334.433 715.096 340.321 709.208C346.208 703.321 350.878 696.331 354.064 688.639C357.251 680.947 358.891 672.702 358.891 664.376V250.923H362.889V172.947Z" fill="#3F3D56"/>
<path d="M298.047 16.495H267.752C269.145 19.9107 269.677 23.6165 269.3 27.2861C268.924 30.9557 267.651 34.4764 265.593 37.5381C263.536 40.5998 260.757 43.1085 257.501 44.8432C254.246 46.5778 250.613 47.4853 246.925 47.4856H113.965C110.276 47.4853 106.644 46.5778 103.389 44.8432C100.133 43.1085 97.3542 40.5998 95.2966 37.5381C93.239 34.4764 91.9659 30.9557 91.5895 27.2861C91.2131 23.6165 91.7449 19.9107 93.1381 16.495H64.8425C58.6247 16.495 52.4678 17.7197 46.7233 20.0991C40.9788 22.4786 35.7592 25.9662 31.3625 30.3628C26.9659 34.7595 23.4783 39.979 21.0988 45.7235C18.7193 51.468 17.4947 57.625 17.4946 63.8428V663.935C17.4946 670.153 18.7193 676.31 21.0988 682.054C23.4782 687.799 26.9659 693.019 31.3625 697.415C35.7592 701.812 40.9788 705.299 46.7233 707.679C52.4678 710.058 58.6247 711.283 64.8425 711.283H298.047C304.265 711.283 310.421 710.058 316.166 707.679C321.911 705.299 327.13 701.812 331.527 697.415C335.923 693.019 339.411 687.799 341.791 682.054C344.17 676.31 345.395 670.153 345.395 663.935V63.8427C345.395 51.2853 340.406 39.2422 331.527 30.3628C322.647 21.4834 310.604 16.495 298.047 16.495Z" fill="white"/>
<path d="M304.445 110.234H58.4447V321.234H304.445V110.234Z" fill="#E6E6E6"/>
<path d="M131.445 365.234C141.386 365.234 149.445 357.175 149.445 347.234C149.445 337.293 141.386 329.234 131.445 329.234C121.504 329.234 113.445 337.293 113.445 347.234C113.445 357.175 121.504 365.234 131.445 365.234Z" fill="#FF2DCA"/>
<path d="M140.445 345.734H132.945V338.234H129.945V345.734H122.445V348.734H129.945V356.234H132.945V348.734H140.445V345.734Z" fill="white"/>
<path d="M226.445 365.234C236.386 365.234 244.445 357.175 244.445 347.234C244.445 337.293 236.386 329.234 226.445 329.234C216.504 329.234 208.445 337.293 208.445 347.234C208.445 357.175 216.504 365.234 226.445 365.234Z" fill="#FF2DCA"/>
<path d="M235.445 348.734V345.734H217.445V348.734H235.445Z" fill="white"/>
<path d="M190.619 136.549H171.179C170.496 136.549 169.84 136.82 169.357 137.303C168.873 137.787 168.602 138.442 168.602 139.126V147.659C168.602 148.342 168.873 148.998 169.357 149.481C169.84 149.965 170.496 150.236 171.179 150.236H174.401V163.021H187.398V150.236H190.619C191.303 150.236 191.959 149.965 192.442 149.481C192.925 148.998 193.197 148.342 193.197 147.659V139.126C193.197 138.442 192.925 137.787 192.442 137.303C191.959 136.82 191.303 136.549 190.619 136.549Z" fill="#FF2DCA"/>
<path d="M210.091 214.641C198.185 197.22 192.099 176.477 192.703 155.385C192.714 154.898 192.556 154.423 192.256 154.04C191.956 153.656 191.533 153.388 191.058 153.282V149.595H170.527V153.23H170.244C169.967 153.231 169.693 153.286 169.438 153.392C169.182 153.498 168.95 153.654 168.755 153.849C168.56 154.045 168.405 154.278 168.299 154.533C168.194 154.789 168.139 155.063 168.14 155.34C168.14 155.391 168.142 155.442 168.146 155.493C169.763 178.041 164.301 198.261 151.76 216.154C151.038 217.182 150.669 218.417 150.709 219.672L152.954 289.117C153.008 290.666 153.658 292.134 154.769 293.215C155.879 294.296 157.365 294.907 158.914 294.919H205.353C206.921 294.906 208.421 294.282 209.535 293.179C210.649 292.076 211.289 290.582 211.317 289.014L212.182 221.589C212.208 219.115 211.478 216.691 210.091 214.641Z" fill="#3F3D56"/>
<path opacity="0.2" d="M186.567 139.329C186.567 140.804 185.981 142.218 184.938 143.261C183.895 144.304 182.481 144.889 181.006 144.889C179.532 144.889 178.117 144.304 177.074 143.261C176.032 142.218 175.446 140.804 175.446 139.329" fill="url(#paint0_linear_59_41)"/>
<path d="M202.74 237.709H197.116C196.579 234.225 194.813 231.048 192.138 228.754C189.462 226.459 186.054 225.197 182.529 225.197C179.004 225.197 175.596 226.459 172.92 228.754C170.245 231.048 168.479 234.225 167.942 237.709H162.318C161.72 237.709 161.128 237.838 160.585 238.088C160.041 238.338 159.558 238.702 159.168 239.157C158.779 239.611 158.492 240.144 158.328 240.719C158.163 241.294 158.125 241.898 158.216 242.49L164.325 282.194H199.399L206.818 242.624C206.931 242.024 206.91 241.407 206.757 240.817C206.604 240.227 206.322 239.678 205.933 239.208C205.544 238.739 205.055 238.362 204.504 238.102C203.952 237.843 203.349 237.709 202.74 237.709Z" fill="#FF2DCA"/>
<path d="M304.445 407.234H58.4447V618.234H304.445V407.234Z" fill="#E6E6E6"/>
<path d="M131.445 662.234C141.386 662.234 149.445 654.175 149.445 644.234C149.445 634.293 141.386 626.234 131.445 626.234C121.504 626.234 113.445 634.293 113.445 644.234C113.445 654.175 121.504 662.234 131.445 662.234Z" fill="#FF2DCA"/>
<path d="M140.445 642.734H132.945V635.234H129.945V642.734H122.445V645.734H129.945V653.234H132.945V645.734H140.445V642.734Z" fill="white"/>
<path d="M226.445 662.234C236.386 662.234 244.445 654.175 244.445 644.234C244.445 634.293 236.386 626.234 226.445 626.234C216.504 626.234 208.445 634.293 208.445 644.234C208.445 654.175 216.504 662.234 226.445 662.234Z" fill="#FF2DCA"/>
<path d="M235.445 645.734V642.734H217.445V645.734H235.445Z" fill="white"/>
<path d="M250.475 479.14C252.301 483.056 255.053 486.26 259.59 487.853C252.763 497.184 242.126 500.047 228.739 499.356C235.517 497.567 242.154 494.508 248.162 489.168L249.302 488.155L248.27 487.032L244.366 482.784L243.367 481.698L242.265 482.678C235.909 488.328 228.8 490.842 220.904 492.092C228.516 484.923 234.993 475.946 238.071 463.378L238.43 461.91L236.96 461.562L231.304 460.222L229.855 459.879L229.501 461.325C226.866 472.084 221.533 479.506 214.755 485.842C214.552 485.672 214.348 485.504 214.143 485.338C219.425 474.751 222.045 466.426 225.955 453.998C227.027 450.59 228.196 446.874 229.544 442.717C235.364 443.951 238.927 446.747 241.327 450.312C243.956 454.217 245.255 459.131 246.384 464.311C246.546 465.054 246.705 465.805 246.865 466.559C247.792 470.939 248.74 475.419 250.475 479.14ZM216.673 503.323C216.594 502.77 216.498 502.225 216.386 501.688C222.175 512.924 220.283 526.961 210.711 536.368C205.338 541.648 198.476 544.552 191.462 545.081C184.372 544.777 175.742 540.256 171.203 533.616L171.203 533.616C168.633 529.857 167.336 525.609 167.91 521.017L167.91 521.017C168.485 516.423 170.977 511.16 176.898 505.52L178.004 504.467L176.932 503.38L172.882 499.276L171.847 498.227L170.78 499.244C163.753 505.937 160.027 513.03 159.162 519.946C159.135 520.16 159.111 520.374 159.09 520.588C157.346 511.246 160.156 501.253 167.531 494.005C169.83 491.746 172.401 489.92 175.137 488.531L176.168 488.102C178.239 487.24 180.754 486.798 183.486 486.801L183.613 486.801C189.76 486.838 196.661 489.097 201.451 493.203L202.354 492.15L201.451 493.204C204.926 496.182 207.286 499.956 207.941 504.541L207.941 504.541C208.596 509.124 207.578 514.832 203.346 521.782L202.553 523.084L203.868 523.856L208.871 526.793L210.144 527.54L210.911 526.279C215.94 518.021 217.659 510.223 216.673 503.323ZM144.144 589.033C134.985 585.832 132.147 577.335 129.343 568.684L129.293 568.528C127.868 564.131 126.409 559.628 123.939 556.309C122.664 554.596 121.094 553.156 119.088 552.187C117.982 551.652 116.769 551.273 115.436 551.061C121.708 544.888 126.158 541.464 130.564 539.523C133.2 538.362 135.861 537.713 138.963 537.358C135.924 538.555 132.882 540.059 129.85 541.942L128.555 542.745L129.379 544.027L132.484 548.858L133.282 550.1L134.536 549.321C140.467 545.641 146.348 543.665 152.34 542.653C147.074 547.038 142.285 552.441 138.516 559.489L137.798 560.832L139.152 561.53L144.311 564.189L145.624 564.866L146.321 563.563C149.831 557 154.3 552.174 159.432 548.186C150.484 565.181 145.479 576.018 144.144 589.033Z" fill="#FF2DCA" stroke="#3F3D56" stroke-width="3"/>
</g>
<defs>
<linearGradient id="paint0_linear_59_41" x1="181.006" y1="139.329" x2="181.006" y2="144.889" gradientUnits="userSpaceOnUse">
<stop/>
<stop offset="1" stop-opacity="0"/>
</linearGradient>
<clipPath id="clip0_59_41">
<rect width="769.924" height="727.778" fill="white"/>
</clipPath>
</defs>
</svg>
